<svg xmlns="http://www.w3.org/2000/svg" viewBox="0 0 26 26"><path d="M21.01 27.11L18.11 2H7.89l-2.9 25.11-1.98-.22L6.11 0h13.78l3.1 26.89-1.98.22"/><path d="M0 12v-2a8.53 8.53 0 0 0 5.36-1.56L6.59 10A10.45 10.45 0 0 1 0 12zm26 0a13.06 13.06 0 0 1-6.4-1.45l1-1.75A11.11 11.11 0 0 0 26 10zM5 0h16v2H5zm9.3 9.84L14.08 7A1.08 1.08 0 0 0 13 6a1.08 1.08 0 0 0-1.08 1l-.22 2.84A1.08 1.08 0 0 0 12.78 11h.44a1.08 1.08 0 0 0 1.08-1.16z"/><path d="M13.22 12h-.44a2.08 2.08 0 0 1-2.07-2.24l.22-2.84a2.08 2.08 0 0 1 4.15 0l.22 2.84A2.08 2.08 0 0 1 13.22 12zM13 7a.08.08 0 0 0-.08.08l-.22 2.83.08.09h.44l.08-.09-.22-2.84A.08.08 0 0 0 13 7zm-1.66 8.53l-.21 2.68A1.66 1.66 0 0 0 12.79 20h.41a1.66 1.66 0 0 0 1.66-1.79l-.21-2.68A1.66 1.66 0 0 0 13 14a1.66 1.66 0 0 0-1.66 1.53z"/><path d="M13.21 21h-.41a2.66 2.66 0 0 1-2.65-2.87l.21-2.68a2.66 2.66 0 0 1 5.31 0l.21 2.68A2.66 2.66 0 0 1 13.21 21zM13 15a.66.66 0 0 0-.66.61l-.21 2.68a.66.66 0 0 0 .66.71h.41a.66.66 0 0 0 .66-.71l-.21-2.68A.66.66 0 0 0 13 15z"/></svg>
