<svg xmlns="http://www.w3.org/2000/svg" viewBox="0 0 26 26"><path fill="none" d="M15.19 6.78l-.9 6.23 3.44-2.15-2.54-4.08M19.9 23H26v-1h-6.22l.12 1m-7.13-1H0v1h12.88l-.11-1m-.59-5.32A42.85 42.85 0 0 0 .36 17.94l-.36.18V20h12.55z"/><path fill="none" d="M12 14.68L14 .86l2 .28-.37 2.57 3.8 6.09L24 6.95l-5 8.28v.13c1.08.19 2.15.41 3.2.68l3.8 1.15V0H0v16a44.29 44.29 0 0 1 12-1.32zm7.28 2.75l.28 2.57H26v-.72L21.71 18c-.78-.24-1.6-.42-2.43-.57z"/><path fill="none" d="M14.06 15.52L14.9 23h2.98l-.91-8.22L18 13.05l-3.94 2.47M0 25h26v1H0z"/><path d="M26 23h-6.1l-.11-1H26v-2h-6.44l-.29-2.57c.83.16 1.65.33 2.43.53l4.3 1.32v-2.09L22.24 16c-1-.26-2.12-.49-3.2-.68v-.13l5-8.28-4.61 2.89-3.81-6.09.38-2.57-2-.28-2 13.82A44.29 44.29 0 0 0 0 16v2.16l.36-.18a42.85 42.85 0 0 1 11.82-1.25l.37 3.27H0v2h12.77l.11 1H0v2h26zM15.18 6.78l2.55 4.08L14.29 13zM17.88 23h-3l-.83-7.49L18 13.05l-1 1.72z"/></svg>
