<svg xmlns="http://www.w3.org/2000/svg" viewBox="0 0 26 26"><path d="M13 26C5.42 26 .65 19.87 0 14.11A15 15 0 0 1 3 3.67V0h7v4.41l-.29.29S6.1 8.41 7 12.8c.49 2.56 2.7 6.2 6 6.2 3.45 0 5.49-3.79 6-6.2.88-4.42-2.69-8.06-2.73-8.1L16 4.41V0h7v3.67a15 15 0 0 1 3 10.44C25.35 19.87 20.58 26 13 26zM5 2v2.34l-.21.27A13.35 13.35 0 0 0 2 13.89 11.22 11.22 0 0 0 13 24a11.22 11.22 0 0 0 11-10.11 13.35 13.35 0 0 0-2.8-9.28l-.2-.27V2h-3v1.61c1 1.1 3.92 4.9 3 9.59-.63 3.15-3.26 7.8-7.93 7.8H13c-4.17 0-7.22-4-8-7.8-.92-4.69 2-8.49 3-9.59V2z"/></svg>