<svg xmlns="http://www.w3.org/2000/svg" viewBox="0 0 26 26"><path d="M16 21h-6a8.83 8.83 0 0 1-6.77-2.76C-.51 14.2 0 7.22 0 6.92l.17-2.16L1.7 6.29a5.17 5.17 0 0 0 4.4.88 3.93 3.93 0 0 1 2.16.26A30.79 30.79 0 0 1 13 9.76a30.78 30.78 0 0 1 4.74-2.33 3.89 3.89 0 0 1 2.16-.26 5.17 5.17 0 0 0 4.4-.88l1.52-1.45.18 2.08c0 .29.51 7.27-3.23 11.31A8.83 8.83 0 0 1 16 21zm-1.92-2H16a6.9 6.9 0 0 0 5.3-2.12c2.15-2.32 2.63-6 2.71-8.13a8 8 0 0 1-4.45.39 1.92 1.92 0 0 0-1.05.14c-3.86 1.6-4.79 2.41-4.82 2.45l-.71.63-.69-.65s-.94-.82-4.8-2.43a1.9 1.9 0 0 0-1.05-.14A8.06 8.06 0 0 1 2 8.75c.09 2.13.57 5.82 2.71 8.14A6.9 6.9 0 0 0 10 19z"/><path fill="none" d="M5 12a5 5 0 0 0 5 5"/><path d="M11 17c0-3-2-5-6-5 0 3 2 5 6 5zm4 0c0-3 2-5 6-5 0 3-2 5-6 5z"/></svg>