<svg xmlns="http://www.w3.org/2000/svg" viewBox="0 0 26 26"><path fill="none" d="M3.06 21h1.86l-.85-11h-.4l-.61 11m9.84-11l-.79 8h1.78l-.79-8h-.2M3.88 6.13L3.78 8h2.66a25.53 25.53 0 0 1-2.56-1.87zM21.08 21h1.86l-.61-11h-.4l-.85 11M19.56 8h2.66l-.1-1.87A25.51 25.51 0 0 1 19.56 8z"/><path d="M26 7.62V5.38l-2-1v-.45l-1.71-.65C21 4.6 16.93 8 14 8h-2C9.07 8 5 4.6 3.71 3.29L2 3.94v.45l-2 1v2.23l1.85-.92L1.78 8H0v2h1.67L.94 23h6.14l-1-13h4.81l-.8 8H9v2h8v-2h-1.09l-.8-8h4.81l-1 13h6.14l-.72-13H26V8h-1.78l-.07-1.31zM3.88 6.13A25.53 25.53 0 0 0 6.44 8H3.78zM4.92 21H3.06l.61-11h.41zm7.19-3l.8-8h.19l.8 8zm10.84 3h-1.87l.85-11h.41zM19.56 8a25.51 25.51 0 0 0 2.56-1.87l.1 1.87z"/></svg>
