<svg xmlns="http://www.w3.org/2000/svg" viewBox="0 0 26 26"><path fill="none" d="M21.08 21h1.86l-.61-11h-.4l-.85 11m1.04-14.87A25.51 25.51 0 0 1 19.56 8h2.66zM12.11 18h1.78l-.79-8h-.2l-.79 8M3.78 8h2.66a25.53 25.53 0 0 1-2.56-1.87zm1.14 13l-.85-11h-.4l-.61 11h1.86M1.85 6.63L0 7.49V8h1.78l.07-1.37"/><path fill="none" d="M2 3.94l1.71-.65C5 4.6 9.07 8 12 8h2c2.93 0 7-3.4 8.29-4.71l1.71.65v.43l2 .91V0H0v5.28l2-.91zm22.15 2.69L24.22 8H26v-.51l-1.85-.86M25.06 23h-6.14l1-13h-4.81l.79 8H17v2H9v-2h1.1l.79-8H6.08l1 13H.94l.73-13H0v16h26V10h-1.67l.73 13"/><path d="M1.72 8.94L1.78 8H0v2h1.67l.05-1.06M6.44 8H3.78l-.06 1.06-.05.94h.41L4 9.08l2-.15.08 1.07h4.81v-.1A12.82 12.82 0 0 1 6.44 8zM22 9.08l-.07.92h.41l-.05-.94L22.22 8h-2.66a12.82 12.82 0 0 1-4.46 1.9v.1h4.81L20 8.92zm2.27-.13l.06 1.05H26V8h-1.78l.05.95m-11.28.15l-.09.9h.2l-.09-.9L14 9V8h-2v1l.99.1"/><path d="M3.78 8l.1-1.87A25.53 25.53 0 0 0 6.44 8a12.82 12.82 0 0 0 4.46 1.9l.1-1 1 .1V8C9.07 8 5 4.6 3.71 3.29L2 3.94v.43l.6-.28.84 1.82-1.57.72L1.78 8l-.05.94 2 .11z"/><path d="M4 9.08l.07.92.85 11H3.06l.61-11 .05-.94-2-.12L1.67 10 .94 23h6.14l-1-13L6 8.92l-2 .16m19.42-4.99l.6.28v-.43l-1.71-.65C21 4.6 16.93 8 14 8v1l1-.1.1 1A12.82 12.82 0 0 0 19.56 8a25.51 25.51 0 0 0 2.56-1.87l.1 1.87.06 1.06 2-.11-.06-.95-.08-1.37-1.57-.72z"/><path d="M22.33 10l.61 11h-1.86l.85-11 .07-.92-2-.16-.08 1.08-1 13h6.14l-.73-13-.06-1.05-1.99.11.05.94M3.42 5.91l-.84-1.82-.6.28L0 5.28v2.21l1.85-.86 1.57-.72m20-1.82l-.84 1.82 1.57.72 1.85.86V5.28l-1.98-.91-.6-.28M14.01 19.1l-.12-1.1h-1.78l-.12 1.1-1.98-.2.09-.9H9v2h8v-2h-1.1l.09.9-1.98.2"/><path d="M11.99 19.1l.12-1.1.79-8 .09-.9L12 9l-.99-.1-.11 1-.01.1-.79 8-.09.9 1.98.2m3-10.2L14 9l-.99.1.09.9.79 8 .12 1.1 1.98-.2-.09-.9-.79-8-.01-.1-.11-1"/></svg>
