<svg xmlns="http://www.w3.org/2000/svg" viewBox="0 0 26 26"><path d="M2 17h2v6H2zm5 0h2v6H7zm5 0h2v6h-2zm12 6h-2V6.43a2.44 2.44 0 0 0-1.76-.76 2 2 0 0 0-1.24.68V23h-2V5.7l.17-.25A4.17 4.17 0 0 1 20 3.68a4.56 4.56 0 0 1 3.68 1.61l.29.29z"/><path d="M26 18H0V8.7l.17-.25A4.17 4.17 0 0 1 3 6.68a4.55 4.55 0 0 1 3.71 1.61l.29.3V16h19zM2 16h3V9.43a2.44 2.44 0 0 0-1.76-.76A2 2 0 0 0 2 9.35z"/><path d="M7.84 11.2a9.25 9.25 0 0 1-2.08-.2l.48-2s3.41.81 5-1.15c2.37-3 6.84-1.89 7-1.84L17.76 8s-3.41-.81-5 1.16a6.13 6.13 0 0 1-4.92 2.04zM7 12h11v2H7z"/></svg>
